<svg width="512" height="512" viewBox="0 0 512 512" fill="none" xmlns="http://www.w3.org/2000/svg">
<rect width="512" height="512" fill="#09090B"/>
<!-- Upward arrow/bird wing representing "Udaan" (flight) -->
<path d="M256 100L340 220L320 220L256 140L192 220L172 220L256 100Z" fill="url(#gradient1)"/>
<path d="M220 160L256 110L292 160L280 160L256 130L232 160L220 160Z" fill="url(#gradient1)" opacity="0.7"/>
<!-- Document/Resume lines -->
<rect x="140" y="260" width="232" height="16" rx="8" fill="#FAFAFA" opacity="0.9"/>
<rect x="140" y="296" width="200" height="16" rx="8" fill="#FAFAFA" opacity="0.7"/>
<rect x="140" y="332" width="180" height="16" rx="8" fill="#FAFAFA" opacity="0.5"/>
<rect x="140" y="368" width="160" height="16" rx="8" fill="#FAFAFA" opacity="0.3"/>
<!-- "U" letter stylized -->
<path d="M100 280C100 260 115 245 135 245C155 245 170 260 170 280V340C170 360 155 375 135 375C115 375 100 360 100 340V280Z" stroke="url(#gradient2)" stroke-width="12" fill="none"/>
<defs>
<linearGradient id="gradient1" x1="172" y1="100" x2="340" y2="220" gradientUnits="userSpaceOnUse">
<stop stop-color="#1e40af"/>
<stop offset="1" stop-color="#06b6d4"/>
</linearGradient>
<linearGradient id="gradient2" x1="100" y1="245" x2="170" y2="375" gradientUnits="userSpaceOnUse">
<stop stop-color="#1e40af"/>
<stop offset="1" stop-color="#06b6d4"/>
</linearGradient>
</defs>
</svg>
